HIERARCHY
ROOT Hips
{
	OFFSET	0.00	0.00	0.00
	CHANNELS 6 Xposition Yposition Zposition Zrotation Xrotation Yrotation
	JOINT LeftUpLeg
	{
		OFFSET	 0.126116	-0.014019	-0.065224
		CHANNELS 3 Zrotation Xrotation Yrotation
		JOINT LeftLeg
		{
			OFFSET	 0.000000	 0.000000	 0.569914
			CHANNELS 3 Zrotation Xrotation Yrotation
			JOINT LeftFoot
			{
				OFFSET	 0.000000	 0.000000	 0.544423
				CHANNELS 3 Zrotation Xrotation Yrotation
				JOINT LeftToeBase
				{
					OFFSET	 0.000000	 0.000000	 0.207117
					CHANNELS 3 Zrotation Xrotation Yrotation
					End Site
					{
						OFFSET	 0.000000	 0.000000	 0.207117
					}
				}
			}
		}
	}
	JOINT RightUpLeg
	{
		OFFSET	-0.124023	-0.008373	-0.065224
		CHANNELS 3 Zrotation Xrotation Yrotation
		JOINT RightLeg
		{
			OFFSET	 0.000000	 0.000000	 0.570047
			CHANNELS 3 Zrotation Xrotation Yrotation
			JOINT RightFoot
			{
				OFFSET	 0.000000	 0.000000	 0.544354
				CHANNELS 3 Zrotation Xrotation Yrotation
				JOINT RightToeBase
				{
					OFFSET	 0.000000	 0.000000	 0.207540
					CHANNELS 3 Zrotation Xrotation Yrotation
					End Site
					{
						OFFSET	 0.000000	 0.000000	 0.207540
					}
				}
			}
		}
	}
	JOINT Spine
	{
		OFFSET	 0.000184	-0.007763	 0.117403
		CHANNELS 3 Zrotation Xrotation Yrotation
		JOINT Spine1
		{
			OFFSET	 0.000000	 0.000000	 0.137269
			CHANNELS 3 Zrotation Xrotation Yrotation
			JOINT Spine2
			{
				OFFSET	 0.000000	 0.000000	 0.156879
				CHANNELS 3 Zrotation Xrotation Yrotation
				JOINT LeftShoulder
				{
					OFFSET	 0.080501	-0.002496	 0.160144
					CHANNELS 3 Zrotation Xrotation Yrotation
					JOINT LeftArm
					{
						OFFSET	 0.000000	 0.000000	 0.164363
						CHANNELS 3 Zrotation Xrotation Yrotation
						JOINT LeftForeArm
						{
							OFFSET	 0.000000	 0.000000	 0.364576
							CHANNELS 3 Zrotation Xrotation Yrotation
							JOINT LeftHand
							{
								OFFSET	 0.000000	 0.000000	 0.360812
								CHANNELS 3 Zrotation Xrotation Yrotation
								JOINT LeftHandIndex1
								{
									OFFSET	 0.000000	 0.000000	 0.086006
									CHANNELS 3 Zrotation Xrotation Yrotation
									JOINT LeftHandIndex2
									{
										OFFSET	 0.000000	 0.000000	 0.047236
										CHANNELS 3 Zrotation Xrotation Yrotation
										JOINT LeftHandIndex3
										{
											OFFSET	-0.004284	-0.000551	 0.038166
											CHANNELS 3 Zrotation Xrotation Yrotation
											End Site
											{
												OFFSET	-0.004284	-0.000551	 0.038166
											}
										}
									}
								}
							}
						}
					}
				}
				JOINT Neck
				{
					OFFSET	 0.000000	 0.000000	 0.176489
					CHANNELS 3 Zrotation Xrotation Yrotation
					JOINT Head
					{
						OFFSET	 0.000000	-0.001747	 0.077940
						CHANNELS 3 Zrotation Xrotation Yrotation
						End Site
						{
							OFFSET	 0.000000	-0.001747	 0.077940
						}
					}
				}
				JOINT RightShoulder
				{
					OFFSET	-0.080363	 0.000306	 0.159706
					CHANNELS 3 Zrotation Xrotation Yrotation
					JOINT RightArm
					{
						OFFSET	 0.000000	 0.000000	 0.164196
						CHANNELS 3 Zrotation Xrotation Yrotation
						JOINT RightForeArm
						{
							OFFSET	 0.000000	 0.000000	 0.365611
							CHANNELS 3 Zrotation Xrotation Yrotation
							JOINT RightHand
							{
								OFFSET	 0.000000	 0.000000	 0.360648
								CHANNELS 3 Zrotation Xrotation Yrotation
								JOINT RightHandIndex1
								{
									OFFSET	 0.000000	 0.000000	 0.069977
									CHANNELS 3 Zrotation Xrotation Yrotation
									JOINT RightHandIndex2
									{
										OFFSET	 0.000000	 0.000000	 0.052305
										CHANNELS 3 Zrotation Xrotation Yrotation
										JOINT RightHandIndex3
										{
											OFFSET	 0.009002	-0.000782	 0.042196
											CHANNELS 3 Zrotation Xrotation Yrotation
											End Site
											{
												OFFSET	 0.009002	-0.000782	 0.042196
											}
										}
									}
								}
							}
						}
					}
				}
			}
		}
	}
}
MOTION
Frames:    6
Frame Time: 0.03333334
-0.000407	 0.047660	 1.276370	-0.065250	 2.915468	 0.508171	 6.888652	-6.478243	 177.925700	 2.177163	-12.822160	 0.575986	-0.168389	 70.240260	 0.104434	-2.385833	 28.452750	 0.000004	 0.598055	-6.003649	-178.164100	-0.777584	-11.374800	 0.863230	 5.166019	 69.350230	 1.152679	 2.384659	 28.388700	-0.000001	-12.768970	 6.824629	 1.451765	-3.183332	-3.666206	-0.086699	 9.752239	 7.313355	-0.859760	-91.046240	 68.960880	-177.550100	-7.784733	 4.954964	-28.087240	 22.107280	 0.054207	-2.785697	-13.906560	-35.570450	-7.833712	-2.027600	 6.559038	 9.033609	-5.188889	 0.308190	 3.541030	-5.234859	 0.342567	 0.430617	 4.631878	 19.947170	-7.375050	 4.982150	-15.105780	 2.250009	 88.846470	 67.546270	 177.034100	 7.722841	 10.028770	 4.910164	-21.663720	-9.758641	 36.990520	 11.621220	-35.079340	 9.516818	 1.803333	 3.979147	-15.098590	 4.898592	 3.004813	-9.310344	 5.224449	 0.395017	 2.014677
-0.000824	 0.051971	 1.276257	-0.021827	 3.516610	 0.571323	 6.909403	-7.595294	 177.912000	 2.164569	-13.257230	 0.592286	 0.140333	 70.088170	-0.233838	-2.385833	 28.452750	 0.000004	 0.399063	-7.024481	-178.253200	-0.767412	-11.649820	 0.885880	 4.835657	 69.115920	 1.500336	 2.384659	 28.388700	-0.000001	-15.662020	 7.210200	 1.519023	-3.223424	-4.087308	-0.044544	 9.778976	 8.328516	-1.038539	-90.953190	 68.318250	-177.361500	-6.603132	 6.457163	-30.358810	 20.004390	 0.242322	-3.836314	-15.945410	-39.610770	-10.391130	-2.027600	 6.559038	 9.033609	-5.188889	 0.308190	 3.541030	-5.234859	 0.342567	 0.430617	 4.706662	 21.833080	-7.936034	 5.298746	-16.584610	 2.362907	 88.682690	 66.401520	 176.750200	 6.460402	 11.596930	 6.341724	-20.323890	-8.590241	 38.134590	 13.089920	-38.665740	 11.205180	 1.803333	 3.979147	-15.098590	 4.898592	 3.004813	-9.310344	 5.224449	 0.395017	 2.014677
-0.001674	 0.060620	 1.275697	 0.063364	 4.683295	 0.683065	 6.930454	-9.950342	 177.903000	 2.203577	-14.457190	 0.650454	 0.753449	 70.010120	-0.949303	-2.385833	 28.452760	 0.000004	 0.038676	-9.217673	-178.447700	-0.803543	-12.572310	 0.947016	 4.335940	 68.856640	 2.098960	 2.384659	 28.388700	-0.000001	-20.348270	 7.880920	 1.617947	-3.194640	-3.803582	 0.198407	 9.723079	 9.525654	-1.340248	-90.824160	 67.237630	-177.151800	-4.789555	 8.878485	-34.608770	 16.246590	 0.708181	-5.600766	-20.731150	-45.607460	-16.163310	-2.027600	 6.559038	 9.033609	-5.188889	 0.308190	 3.541030	-5.234859	 0.342567	 0.430617	 4.716077	 24.753810	-8.731460	 5.851880	-18.950450	 2.570998	 88.425260	 64.399080	 176.381500	 4.081388	 14.022650	 9.278427	-18.005370	-6.416748	 40.087520	 16.186530	-44.040900	 15.066270	 1.803333	 3.979147	-15.098590	 4.898592	 3.004813	-9.310344	 5.224449	 0.395017	 2.014677
-0.002589	 0.071266	 1.275946	 0.174358	 6.252718	 0.794042	 6.859272	-12.636710	 177.956500	 2.170180	-15.167340	 0.677215	 1.575413	 69.552290	-1.882788	-2.385832	 28.452790	-0.000001	-0.449276	-11.661980	-178.662300	-1.223087	-12.789150	 0.869749	 3.838417	 68.123550	 3.099024	 2.384659	 28.388700	-0.000001	-24.599600	 8.519720	 1.668169	-3.043367	-2.701916	 0.610486	 9.447508	 10.162200	-1.690297	-90.838730	 65.750340	-177.416300	-3.064443	 10.356520	-38.843140	 11.383700	 1.357012	-7.314174	-27.945310	-49.751250	-23.780870	-2.027600	 6.559038	 9.033609	-5.188889	 0.308190	 3.541030	-5.234859	 0.342567	 0.430617	 4.321145	 26.327130	-8.824409	 6.171381	-20.415510	 2.528352	 88.387140	 62.187830	 176.608200	 1.076596	 15.185960	 12.105170	-15.209660	-3.832028	 42.769740	 20.242200	-47.790520	 20.354060	 1.803333	 3.979147	-15.098590	 4.898592	 3.004813	-9.310344	 5.224449	 0.395017	 2.014677
-0.003202	 0.083470	 1.275643	 0.424690	 8.199523	 0.835438	 6.610113	-15.962070	 178.130400	 2.085343	-16.200620	 0.698437	 2.634916	 68.948440	-3.036410	-2.385833	 28.452760	 0.000004	-0.993367	-14.821830	-178.852800	-1.435293	-13.511910	 0.868213	 3.184943	 67.531860	 4.066338	 2.384659	 28.388700	-0.000001	-28.308940	 9.025645	 1.640618	-2.855801	-1.697193	 0.960914	 9.074696	 10.451370	-1.870505	-91.350330	 65.017680	-178.867600	-1.565931	 12.309640	-41.589350	 7.409805	 2.126575	-8.889352	-34.918380	-51.414240	-31.084620	-2.027600	 6.559038	 9.033609	-5.188889	 0.308190	 3.541030	-5.234859	 0.342567	 0.430617	 3.849720	 26.857710	-8.767023	 6.336034	-21.241610	 2.517856	 88.854290	 61.189820	 177.823900	-2.238595	 17.275970	 14.203930	-12.940530	-1.310833	 44.902640	 24.122420	-49.888210	 25.488090	 1.803333	 3.979147	-15.098590	 4.898592	 3.004813	-9.310344	 5.224449	 0.395017	 2.014677
-0.004199	 0.095370	 1.274564	 0.636726	 10.308240	 0.838299	 6.352913	-19.594060	 178.307600	 2.060700	-17.755880	 0.755890	 3.724608	 68.770610	-4.300356	-2.385833	 28.452760	 0.000004	-1.423408	-18.441990	-179.039400	-1.605364	-15.125180	 0.925026	 2.594330	 67.598300	 4.940945	 2.384659	 28.388700	-0.000001	-31.346120	 9.493401	 1.622380	-2.627187	-0.479516	 1.251628	 8.662996	 10.362600	-1.846442	-92.050020	 64.899570	 179.275700	-0.706853	 13.994220	-43.334600	 4.549209	 2.966139	-10.291660	-39.795810	-51.407090	-36.349290	-2.027600	 6.559038	 9.033609	-5.188889	 0.308190	 3.541030	-5.234859	 0.342567	 0.430617	 3.407644	 26.274660	-8.852041	 6.354382	-21.405870	 2.427426	 89.523570	 60.597980	 179.405600	-5.357926	 19.341060	 16.349950	-10.791360	 1.285542	 46.822590	 27.521420	-50.529660	 29.681610	 1.803333	 3.979147	-15.098590	 4.898592	 3.004813	-9.310344	 5.224449	 0.395017	 2.014677
